<svg xmlns="http://www.w3.org/2000/svg" viewBox="0 0 60 56">
<path fill-rule="evenodd" clip-rule="evenodd" d="M26.3816 52.4518H11.8562L10.511 41.726L1.70079 35.3412C1.3167 33.4646 1.1228 31.5531 1.1228 29.6379C1.1228 13.8988 13.9457 1.12256 29.7443 1.12256C45.5439 1.12256 58.3668 13.8988 58.3668 29.6379C58.3668 31.5531 58.1738 33.4646 57.7888 35.3412L48.9804 41.726L47.6333 52.4518H33.1098L32.2714 53.058C31.5365 53.5907 30.6528 53.8777 29.7443 53.8777C28.8376 53.8777 27.9531 53.5907 27.22 53.058L26.3816 52.4518Z" fill="#FFCD02"/>
<path fill-rule="evenodd" clip-rule="evenodd" d="M26.8356 47.4606H16.2786L15.2122 38.9609L6.51555 32.6597C6.26072 31.6727 6.13146 30.6581 6.13146 29.6379C6.13146 27.9352 6.49155 26.2528 7.18772 24.6973L22.5848 40.2074L7.61706 21.7978C8.20613 19.4107 9.50891 17.2582 11.3546 15.6254L24.7721 38.6978L12.8836 13.4389C14.4218 11.3995 16.5676 9.89641 19.0125 9.14302L27.216 37.7807L21.222 7.9619C23.0455 6.93807 25.1045 6.39902 27.1967 6.39902C27.6398 6.39902 28.083 6.42294 28.5234 6.47078L29.745 37.4808L30.9674 6.47078C31.4069 6.42294 31.8492 6.39902 32.2933 6.39902C34.3864 6.39902 36.4445 6.93807 38.268 7.9619L32.2739 37.7807L40.4784 9.14302C42.9233 9.89641 45.0681 11.3995 46.6064 13.4389L34.7179 38.6978L48.1344 15.6254C49.981 17.2582 51.2848 19.4107 51.8729 21.7978L36.9052 40.2074L52.3022 24.6973C52.9975 26.2528 53.3585 27.9352 53.3585 29.6379C53.3585 30.6581 53.2292 31.6727 52.9735 32.6597L44.2787 38.9609L43.2114 47.4606H32.6543L31.093 48.592C30.6997 48.8763 30.2288 49.029 29.745 49.029C29.2612 49.029 28.7894 48.8763 28.3979 48.592L26.8356 47.4606Z" fill="#EE282A"/>
</svg>