<svg width="224" height="55" viewBox="0 0 224 55" fill="none" xmlns="http://www.w3.org/2000/svg">
<path fill-rule="evenodd" clip-rule="evenodd" d="M98.7019 7.51356C97.8381 6.78923 96.7499 6.31343 95.5952 6.31343C94.7472 6.31343 93.5953 6.82341 93.5953 7.81659C93.5953 8.85966 94.8572 9.26433 95.6738 9.53687L96.8654 9.89534C99.3716 10.6465 101.302 11.9002 101.302 14.8187C101.302 16.5991 100.874 18.4348 99.4427 19.6488C98.0414 20.8453 96.1578 21.3469 94.3334 21.3469C92.0785 21.3469 89.843 20.5847 88.0222 19.295L90.0296 15.5329C91.1981 16.5473 92.5681 17.3853 94.1717 17.3853C95.2775 17.3853 96.4368 16.8439 96.4368 15.5754C96.4368 14.2663 94.592 13.8025 93.5953 13.5151C90.6605 12.6956 88.7372 11.9205 88.7372 8.45592C88.7372 4.77515 91.3302 2.40723 94.9338 2.40723C96.7499 2.40723 98.967 2.97819 100.563 3.88452L98.7019 7.51356Z" fill="#EE282A"/>
<path fill-rule="evenodd" clip-rule="evenodd" d="M107.513 1.06982V10.1831H107.575C108.58 8.84342 109.795 8.22996 111.499 8.22996C114.597 8.22996 116.084 10.2671 116.084 13.3825V20.866H111.748V14.5937C111.748 13.1728 111.53 11.6853 109.795 11.6853C108.066 11.6853 107.513 13.1728 107.513 14.5937V20.866H103.179V1.06982H107.513Z" fill="#EE282A"/>
<path fill-rule="evenodd" clip-rule="evenodd" d="M127.255 12.9621C127.045 11.798 125.963 11.0404 124.797 11.0404C123.541 11.0404 122.499 11.7084 122.234 12.9621H127.255ZM131.303 15.477H122.148C122.148 17.2351 123.083 18.1867 124.873 18.1867C125.8 18.1867 126.462 17.892 126.936 17.0808H131.11C130.423 19.9615 127.692 21.279 124.896 21.279C120.841 21.279 117.821 18.9859 117.821 14.7683C117.821 10.6801 120.599 8.22998 124.592 8.22998C128.828 8.22998 131.303 10.852 131.303 15.0178V15.477Z" fill="#EE282A"/>
<mask id="mask0" mask-type="alpha" maskUnits="userSpaceOnUse" x="0" y="0" width="224" height="55">
<path fill-rule="evenodd" clip-rule="evenodd" d="M0 55H223.367V0H0V55Z" fill="white"/>
</mask>
<g mask="url(#mask0)">
<path fill-rule="evenodd" clip-rule="evenodd" d="M133.031 20.866H137.375V1.06982H133.031V20.866Z" fill="#EE282A"/>
<path fill-rule="evenodd" clip-rule="evenodd" d="M139.99 20.866H144.342V1.06982H139.99V20.866Z" fill="#EE282A"/>
<path fill-rule="evenodd" clip-rule="evenodd" d="M106.323 26.6572H113.105L125.527 42.6119H125.596V26.6572H132.378V52.7506H125.596L113.174 36.7627H113.105V52.7506H106.323V26.6572Z" fill="#0098BD"/>
<path fill-rule="evenodd" clip-rule="evenodd" d="M197.346 26.6572H205.478L210.356 33.7527L215.235 26.6572H223.367L213.748 40.2245V52.7506H206.965V40.2245L197.346 26.6572Z" fill="#0098BD"/>
<path fill-rule="evenodd" clip-rule="evenodd" d="M200.512 38.1813C200.442 41.9887 200.166 45.2417 197.848 48.4938C195.287 52.0591 191.447 53.6158 187.087 53.6158C178.886 53.6158 173.177 48.0438 173.177 39.8434C173.177 31.364 178.92 25.792 187.329 25.792C192.692 25.792 196.843 28.2154 199.094 33.0944L192.657 35.794C191.722 33.3023 189.751 31.6411 187.017 31.6411C182.554 31.6411 180.236 35.8975 180.236 39.8776C180.236 43.9261 182.658 48.0438 187.121 48.0438C190.062 48.0438 192.31 46.5213 192.589 43.5112H187.051V38.1813H200.512Z" fill="#0098BD"/>
<path fill-rule="evenodd" clip-rule="evenodd" d="M166.466 42.0576C170.168 41.3998 172.176 38.2853 172.176 34.6868C172.176 29.1148 168.266 26.6582 163.11 26.6582H152.972V32.3965H159.583V29.331L167.757 34.6618L159.583 39.9918V36.7563H152.972V52.7516H159.753V42.7154H159.822L166.224 52.7516H174.667L166.466 42.0576Z" fill="#0098BD"/>
<path fill-rule="evenodd" clip-rule="evenodd" d="M95.5362 32.4015V36.7632H103.183V42.5079H95.5362V47.0063H103.6V52.751H88.7539V26.6567H103.6V32.4015H95.5362Z" fill="#0098BD"/>
<path fill-rule="evenodd" clip-rule="evenodd" d="M142.184 32.4015V36.7632H149.831V42.5079H142.184V47.0063H150.248V52.751H135.403V26.6567H150.248V32.4015H142.184Z" fill="#0098BD"/>
</g>
<path fill-rule="evenodd" clip-rule="evenodd" d="M26.3818 52.4518H11.8561L10.5109 41.726L1.70056 35.3412C1.31646 33.4646 1.12256 31.5531 1.12256 29.6379C1.12256 13.8988 13.9456 1.12256 29.7445 1.12256C45.5444 1.12256 58.3674 13.8988 58.3674 29.6379C58.3674 31.5531 58.1745 33.4646 57.7894 35.3412L48.981 41.726L47.6339 52.4518H33.11L32.2717 53.058C31.5367 53.5907 30.6531 53.8777 29.7445 53.8777C28.8378 53.8777 27.9533 53.5907 27.2202 53.058L26.3818 52.4518Z" stroke="white" stroke-width="2.17"/>
<path fill-rule="evenodd" clip-rule="evenodd" d="M26.3816 52.4518H11.8562L10.511 41.726L1.70079 35.3412C1.3167 33.4646 1.1228 31.5531 1.1228 29.6379C1.1228 13.8988 13.9457 1.12256 29.7443 1.12256C45.5439 1.12256 58.3668 13.8988 58.3668 29.6379C58.3668 31.5531 58.1738 33.4646 57.7888 35.3412L48.9804 41.726L47.6333 52.4518H33.1098L32.2714 53.058C31.5365 53.5907 30.6528 53.8777 29.7443 53.8777C28.8376 53.8777 27.9531 53.5907 27.22 53.058L26.3816 52.4518Z" fill="#FFCD02"/>
<path fill-rule="evenodd" clip-rule="evenodd" d="M26.8356 47.4606H16.2786L15.2122 38.9609L6.51555 32.6597C6.26072 31.6727 6.13146 30.6581 6.13146 29.6379C6.13146 27.9352 6.49155 26.2528 7.18772 24.6973L22.5848 40.2074L7.61706 21.7978C8.20613 19.4107 9.50891 17.2582 11.3546 15.6254L24.7721 38.6978L12.8836 13.4389C14.4218 11.3995 16.5676 9.89641 19.0125 9.14302L27.216 37.7807L21.222 7.9619C23.0455 6.93807 25.1045 6.39902 27.1967 6.39902C27.6398 6.39902 28.083 6.42294 28.5234 6.47078L29.745 37.4808L30.9674 6.47078C31.4069 6.42294 31.8492 6.39902 32.2933 6.39902C34.3864 6.39902 36.4445 6.93807 38.268 7.9619L32.2739 37.7807L40.4784 9.14302C42.9233 9.89641 45.0681 11.3995 46.6064 13.4389L34.7179 38.6978L48.1344 15.6254C49.981 17.2582 51.2848 19.4107 51.8729 21.7978L36.9052 40.2074L52.3022 24.6973C52.9975 26.2528 53.3585 27.9352 53.3585 29.6379C53.3585 30.6581 53.2292 31.6727 52.9735 32.6597L44.2787 38.9609L43.2114 47.4606H32.6543L31.093 48.592C30.6997 48.8763 30.2288 49.029 29.745 49.029C29.2612 49.029 28.7894 48.8763 28.3979 48.592L26.8356 47.4606ZM26.3814 52.4509H11.8569L10.5116 41.7251L1.70055 35.3412C1.31645 33.4655 1.12256 31.5531 1.12256 29.6379C1.12256 13.8978 13.9454 1.12256 29.745 1.12256C45.5437 1.12256 58.3674 13.8978 58.3674 29.6379C58.3674 31.5531 58.1735 33.4655 57.7895 35.3412L48.9802 41.7251L47.634 52.4509H33.1095L32.2712 53.059C31.5362 53.5916 30.6526 53.8767 29.745 53.8767C28.8383 53.8767 27.9529 53.5916 27.2198 53.059L26.3814 52.4509Z" fill="#EE282A"/>
</svg>
